<svg xmlns="http://www.w3.org/2000/svg" xmlns:xlink="http://www.w3.org/1999/xlink" width="2000" zoomAndPan="magnify" viewBox="0 0 1500 1499.999933" height="2000" preserveAspectRatio="xMidYMid meet" version="1.0"><defs><g></g><clipPath id="2a72e35356"><rect x="0" width="723" y="0" height="229"></rect></clipPath><clipPath id="538ee153ec"><rect x="0" width="219" y="0" height="229"></rect></clipPath></defs><path fill="#38b6ff" d="M 393.988281 799.472656 L 339.164062 704.53125 L 314.992188 746.449219 L 357.679688 820.40625 C 361.535156 827.09375 368.582031 830.898438 375.835938 830.898438 C 379.382812 830.898438 382.984375 829.972656 386.273438 828.070312 C 396.355469 822.257812 399.75 809.503906 393.988281 799.472656 Z M 393.988281 799.472656" fill-opacity="1" fill-rule="nonzero"></path><path fill="#38b6ff" d="M 355.519531 652.378906 L 332.273438 692.652344 L 308.046875 734.566406 L 270.605469 799.421875 C 259.394531 818.863281 238.460938 830.949219 216.039062 830.949219 C 193.253906 830.949219 172.835938 819.171875 161.417969 799.421875 C 150 779.722656 150 756.117188 161.417969 736.367188 L 226.941406 622.960938 C 233.730469 611.183594 245.917969 604.136719 259.496094 604.136719 C 273.074219 604.136719 285.265625 611.183594 292.105469 622.960938 L 294.46875 627.078125 L 301.257812 638.800781 L 277.035156 680.71875 L 259.496094 650.375 L 197.78125 757.300781 C 192.277344 766.816406 195.929688 775.25 197.78125 778.4375 C 199.632812 781.628906 205.082031 789.03125 216.089844 789.03125 C 223.597656 789.03125 230.644531 784.96875 234.347656 778.4375 L 283.875 692.652344 L 308.097656 650.734375 L 319.207031 631.449219 C 325.019531 621.417969 337.828125 617.972656 347.855469 623.785156 C 357.886719 629.542969 361.332031 642.351562 355.519531 652.378906 Z M 355.519531 652.378906" fill-opacity="1" fill-rule="nonzero"></path><path fill="#38b6ff" d="M 345.335938 602.59375 C 356.546875 627.847656 393.9375 612.367188 384.0625 586.546875 C 372.800781 561.347656 335.410156 576.828125 345.335938 602.59375 Z M 345.335938 602.59375" fill-opacity="1" fill-rule="nonzero"></path><g transform="matrix(1, 0, 0, 1, 399, 660)"><g clip-path="url(#2a72e35356)"><g fill="#000000" fill-opacity="1"><g transform="translate(0.75372, 162.939224)"><g><path d="M 45.328125 -150.8125 L 45.328125 0 L 10.96875 0 L 10.96875 -150.8125 Z M 45.328125 -150.8125"></path></g></g></g><g fill="#000000" fill-opacity="1"><g transform="translate(47.72531, 162.939224)"><g><path d="M 10.96875 -150.8125 L 65.984375 -150.8125 C 81.335938 -150.8125 93.765625 -146.847656 103.265625 -138.921875 C 112.773438 -131.003906 117.53125 -119.488281 117.53125 -104.375 C 117.53125 -89.257812 112.71875 -77.40625 103.09375 -68.8125 C 93.46875 -60.226562 81.097656 -55.9375 65.984375 -55.9375 L 45.328125 -55.9375 L 45.328125 0 L 10.96875 0 Z M 45.328125 -83.359375 L 55.015625 -83.359375 C 62.691406 -83.359375 69 -84.910156 73.9375 -88.015625 C 78.875 -91.117188 81.34375 -96.207031 81.34375 -103.28125 C 81.34375 -110.46875 78.875 -115.613281 73.9375 -118.71875 C 69 -121.832031 62.691406 -123.390625 55.015625 -123.390625 L 45.328125 -123.390625 Z M 45.328125 -83.359375"></path></g></g></g><g fill="#000000" fill-opacity="1"><g transform="translate(160.129791, 162.939224)"><g><path d="M 4.203125 -75.5 C 4.203125 -97.3125 11.632812 -115.769531 26.5 -130.875 C 41.375 -145.988281 59.289062 -153.546875 80.25 -153.546875 C 101.332031 -153.546875 119.242188 -146.019531 133.984375 -130.96875 C 148.734375 -115.925781 156.109375 -97.4375 156.109375 -75.5 C 156.109375 -53.4375 148.859375 -34.878906 134.359375 -19.828125 C 119.859375 -4.785156 101.820312 2.734375 80.25 2.734375 C 58.1875 2.734375 39.992188 -4.726562 25.671875 -19.65625 C 11.359375 -34.582031 4.203125 -53.195312 4.203125 -75.5 Z M 41.3125 -75.5 C 41.3125 -67.570312 42.53125 -60.347656 44.96875 -53.828125 C 47.40625 -47.304688 51.671875 -41.789062 57.765625 -37.28125 C 63.859375 -32.78125 71.351562 -30.53125 80.25 -30.53125 C 93.039062 -30.53125 102.695312 -34.914062 109.21875 -43.6875 C 115.738281 -52.457031 119 -63.0625 119 -75.5 C 119 -87.800781 115.675781 -98.367188 109.03125 -107.203125 C 102.394531 -116.046875 92.800781 -120.46875 80.25 -120.46875 C 67.820312 -120.46875 58.222656 -116.046875 51.453125 -107.203125 C 44.691406 -98.367188 41.3125 -87.800781 41.3125 -75.5 Z M 41.3125 -75.5"></path></g></g></g><g fill="#000000" fill-opacity="1"><g transform="translate(311.099469, 162.939224)"><g><path d="M 45.328125 -150.8125 L 45.328125 -30.15625 L 97.25 -30.15625 L 97.25 0 L 10.96875 0 L 10.96875 -150.8125 Z M 45.328125 -150.8125"></path></g></g></g><g fill="#000000" fill-opacity="1"><g transform="translate(405.043828, 162.939224)"><g><path d="M 17.359375 -11.609375 C 8.585938 -21.171875 4.203125 -32.898438 4.203125 -46.796875 C 4.203125 -60.691406 8.585938 -72.453125 17.359375 -82.078125 C 26.140625 -91.703125 37.289062 -96.515625 50.8125 -96.515625 C 63.25 -96.515625 73.488281 -92.613281 81.53125 -84.8125 L 81.53125 -93.78125 L 113.875 -93.78125 L 113.875 0 L 81.890625 0 L 81.890625 -10.609375 L 81.53125 -10.609375 C 73.488281 -1.710938 63.25 2.734375 50.8125 2.734375 C 37.289062 2.734375 26.140625 -2.046875 17.359375 -11.609375 Z M 44.875 -62.703125 C 40.664062 -58.554688 38.5625 -53.253906 38.5625 -46.796875 C 38.5625 -40.335938 40.570312 -35.066406 44.59375 -30.984375 C 48.625 -26.898438 53.925781 -24.859375 60.5 -24.859375 C 66.84375 -24.859375 72.054688 -26.929688 76.140625 -31.078125 C 80.222656 -35.222656 82.265625 -40.460938 82.265625 -46.796875 C 82.265625 -53.253906 80.160156 -58.554688 75.953125 -62.703125 C 71.742188 -66.847656 66.59375 -68.921875 60.5 -68.921875 C 54.289062 -68.921875 49.082031 -66.847656 44.875 -62.703125 Z M 44.875 -62.703125"></path></g></g></g><g fill="#000000" fill-opacity="1"><g transform="translate(520.555423, 162.939224)"><g><path d="M 107.484375 -82.078125 C 116.253906 -72.453125 120.640625 -60.691406 120.640625 -46.796875 C 120.640625 -32.898438 116.253906 -21.171875 107.484375 -11.609375 C 98.710938 -2.046875 87.5625 2.734375 74.03125 2.734375 C 61.601562 2.734375 51.367188 -1.710938 43.328125 -10.609375 L 42.953125 -10.609375 L 42.953125 0 L 10.96875 0 L 10.96875 -157.203125 L 43.328125 -157.203125 L 43.328125 -84.8125 C 51.367188 -92.613281 61.601562 -96.515625 74.03125 -96.515625 C 87.5625 -96.515625 98.710938 -91.703125 107.484375 -82.078125 Z M 80.25 -30.984375 C 84.269531 -35.066406 86.28125 -40.335938 86.28125 -46.796875 C 86.28125 -53.253906 84.175781 -58.554688 79.96875 -62.703125 C 75.769531 -66.847656 70.5625 -68.921875 64.34375 -68.921875 C 58.25 -68.921875 53.097656 -66.847656 48.890625 -62.703125 C 44.691406 -58.554688 42.59375 -53.253906 42.59375 -46.796875 C 42.59375 -40.460938 44.632812 -35.222656 48.71875 -31.078125 C 52.800781 -26.929688 58.007812 -24.859375 64.34375 -24.859375 C 70.925781 -24.859375 76.226562 -26.898438 80.25 -30.984375 Z M 80.25 -30.984375"></path></g></g></g><g fill="#000000" fill-opacity="1"><g transform="translate(635.153096, 162.939224)"><g><path d="M 51.734375 -96.515625 C 57.097656 -96.515625 62.398438 -95.90625 67.640625 -94.6875 C 72.878906 -93.46875 76.773438 -92.25 79.328125 -91.03125 L 83.171875 -89.203125 L 72.578125 -68 C 65.265625 -71.894531 58.316406 -73.84375 51.734375 -73.84375 C 48.078125 -73.84375 45.484375 -73.445312 43.953125 -72.65625 C 42.429688 -71.863281 41.671875 -70.375 41.671875 -68.1875 C 41.671875 -67.695312 41.734375 -67.207031 41.859375 -66.71875 C 41.984375 -66.226562 42.226562 -65.769531 42.59375 -65.34375 C 42.957031 -64.914062 43.289062 -64.550781 43.59375 -64.25 C 43.894531 -63.945312 44.410156 -63.613281 45.140625 -63.25 C 45.878906 -62.882812 46.460938 -62.609375 46.890625 -62.421875 C 47.316406 -62.242188 48.015625 -61.96875 48.984375 -61.59375 C 49.960938 -61.226562 50.695312 -60.953125 51.1875 -60.765625 C 51.675781 -60.585938 52.5 -60.316406 53.65625 -59.953125 C 54.8125 -59.585938 55.691406 -59.34375 56.296875 -59.21875 C 60.078125 -58.125 63.367188 -56.90625 66.171875 -55.5625 C 68.972656 -54.226562 71.925781 -52.398438 75.03125 -50.078125 C 78.144531 -47.765625 80.550781 -44.84375 82.25 -41.3125 C 83.957031 -37.78125 84.8125 -33.757812 84.8125 -29.25 C 84.8125 -7.925781 70.003906 2.734375 40.390625 2.734375 C 33.691406 2.734375 27.328125 1.703125 21.296875 -0.359375 C 15.265625 -2.429688 10.90625 -4.503906 8.21875 -6.578125 L 4.203125 -9.875 L 17.359375 -31.984375 C 18.335938 -31.128906 19.617188 -30.125 21.203125 -28.96875 C 22.785156 -27.8125 25.648438 -26.226562 29.796875 -24.21875 C 33.941406 -22.207031 37.535156 -21.203125 40.578125 -21.203125 C 47.285156 -21.203125 50.640625 -23.457031 50.640625 -27.96875 C 50.640625 -30.039062 49.785156 -31.65625 48.078125 -32.8125 C 46.367188 -33.96875 43.472656 -35.273438 39.390625 -36.734375 C 35.304688 -38.203125 32.109375 -39.546875 29.796875 -40.765625 C 23.941406 -43.804688 19.304688 -47.242188 15.890625 -51.078125 C 12.484375 -54.921875 10.78125 -60.015625 10.78125 -66.359375 C 10.78125 -75.859375 14.46875 -83.257812 21.84375 -88.5625 C 29.21875 -93.863281 39.179688 -96.515625 51.734375 -96.515625 Z M 51.734375 -96.515625"></path></g></g></g></g></g><g transform="matrix(1, 0, 0, 1, 1121, 660)"><g clip-path="url(#538ee153ec)"><g fill="#38b6ff" fill-opacity="1"><g transform="translate(0.424663, 162.939224)"><g><path d="M 31.8125 -39.125 C 37.65625 -39.125 42.617188 -37.082031 46.703125 -33 C 50.785156 -28.914062 52.828125 -23.945312 52.828125 -18.09375 C 52.828125 -12.363281 50.785156 -7.457031 46.703125 -3.375 C 42.617188 0.695312 37.65625 2.734375 31.8125 2.734375 C 26.082031 2.734375 21.175781 0.695312 17.09375 -3.375 C 13.007812 -7.457031 10.96875 -12.363281 10.96875 -18.09375 C 10.96875 -23.945312 13.007812 -28.914062 17.09375 -33 C 21.175781 -37.082031 26.082031 -39.125 31.8125 -39.125 Z M 31.8125 -39.125"></path></g></g></g><g fill="#38b6ff" fill-opacity="1"><g transform="translate(54.889957, 162.939224)"><g><path d="M 17.359375 -11.609375 C 8.585938 -21.171875 4.203125 -32.898438 4.203125 -46.796875 C 4.203125 -60.691406 8.585938 -72.453125 17.359375 -82.078125 C 26.140625 -91.703125 37.289062 -96.515625 50.8125 -96.515625 C 63.25 -96.515625 73.488281 -92.613281 81.53125 -84.8125 L 81.53125 -93.78125 L 113.875 -93.78125 L 113.875 0 L 81.890625 0 L 81.890625 -10.609375 L 81.53125 -10.609375 C 73.488281 -1.710938 63.25 2.734375 50.8125 2.734375 C 37.289062 2.734375 26.140625 -2.046875 17.359375 -11.609375 Z M 44.875 -62.703125 C 40.664062 -58.554688 38.5625 -53.253906 38.5625 -46.796875 C 38.5625 -40.335938 40.570312 -35.066406 44.59375 -30.984375 C 48.625 -26.898438 53.925781 -24.859375 60.5 -24.859375 C 66.84375 -24.859375 72.054688 -26.929688 76.140625 -31.078125 C 80.222656 -35.222656 82.265625 -40.460938 82.265625 -46.796875 C 82.265625 -53.253906 80.160156 -58.554688 75.953125 -62.703125 C 71.742188 -66.847656 66.59375 -68.921875 60.5 -68.921875 C 54.289062 -68.921875 49.082031 -66.847656 44.875 -62.703125 Z M 44.875 -62.703125"></path></g></g></g><g fill="#38b6ff" fill-opacity="1"><g transform="translate(170.401577, 162.939224)"><g><path d="M 14.0625 -146.046875 C 17.84375 -149.828125 22.351562 -151.71875 27.59375 -151.71875 C 32.84375 -151.71875 37.351562 -149.828125 41.125 -146.046875 C 44.90625 -142.273438 46.796875 -137.769531 46.796875 -132.53125 C 46.796875 -127.289062 44.90625 -122.78125 41.125 -119 C 37.351562 -115.21875 32.84375 -113.328125 27.59375 -113.328125 C 22.351562 -113.328125 17.84375 -115.21875 14.0625 -119 C 10.289062 -122.78125 8.40625 -127.289062 8.40625 -132.53125 C 8.40625 -137.769531 10.289062 -142.273438 14.0625 -146.046875 Z M 10.96875 -93.78125 L 10.96875 0 L 43.328125 0 L 43.328125 -93.78125 Z M 10.96875 -93.78125"></path></g></g></g></g></g></svg>